<svg xmlns="http://www.w3.org/2000/svg" width="100.022" height="100" viewBox="0 0 100.022 100">
  <defs>
    <style>
      .cls-1 {
        fill: #fff;
      }
    </style>
  </defs>
  <path id="instagram-brands" class="cls-1" d="M49.947,56.186A25.639,25.639,0,1,0,75.586,81.825,25.6,25.6,0,0,0,49.947,56.186Zm0,42.307A16.669,16.669,0,1,1,66.616,81.825,16.7,16.7,0,0,1,49.947,98.494ZM82.615,55.138a5.98,5.98,0,1,1-5.98-5.98A5.966,5.966,0,0,1,82.615,55.138ZM99.6,61.207C99.217,53.2,97.387,46.1,91.518,40.254c-5.846-5.846-12.942-7.676-20.953-8.078-8.256-.469-33-.469-41.259,0-7.988.379-15.084,2.209-20.953,8.055S.678,53.174.276,61.185c-.469,8.256-.469,33,0,41.258.379,8.011,2.209,15.107,8.078,20.953s12.942,7.676,20.953,8.078c8.256.469,33,.469,41.259,0,8.011-.379,15.107-2.209,20.953-8.078,5.846-5.846,7.676-12.942,8.078-20.953.469-8.256.469-32.98,0-41.236ZM88.93,111.3a16.876,16.876,0,0,1-9.506,9.506c-6.583,2.611-22.2,2.008-29.477,2.008s-22.916.58-29.477-2.008a16.875,16.875,0,0,1-9.506-9.506c-2.611-6.583-2.008-22.2-2.008-29.477s-.58-22.916,2.008-29.477a16.876,16.876,0,0,1,9.506-9.506c6.583-2.611,22.2-2.008,29.477-2.008s22.916-.58,29.477,2.008a16.876,16.876,0,0,1,9.506,9.506c2.611,6.583,2.008,22.2,2.008,29.477S91.541,104.741,88.93,111.3Z" transform="translate(0.075 -31.825)"/>
</svg>
