<svg xmlns="http://www.w3.org/2000/svg" width="108.022" height="81.017" viewBox="0 0 108.022 81.017">
  <defs>
    <style>
      .cls-1 {
        fill: #fff;
      }
    </style>
  </defs>
  <path id="envelope-regular" class="cls-1" d="M97.9,64H10.127A10.127,10.127,0,0,0,0,74.127V134.89a10.127,10.127,0,0,0,10.127,10.127H97.9a10.127,10.127,0,0,0,10.127-10.127V74.127A10.127,10.127,0,0,0,97.9,64Zm0,10.127v8.609c-4.731,3.852-12.272,9.842-28.4,22.467-3.553,2.795-10.591,9.509-15.489,9.431-4.9.079-11.937-6.637-15.489-9.431C22.4,92.581,14.858,86.589,10.127,82.736V74.127ZM10.127,134.89V95.731c4.834,3.851,11.69,9.254,22.14,17.437,4.611,3.63,12.687,11.643,21.744,11.594,9.012.049,16.986-7.848,21.742-11.593C86.2,104.987,93.061,99.582,97.9,95.731V134.89Z" transform="translate(0 -64)"/>
</svg>
